<?xml version="1.0" encoding="UTF-8"?>
<svg width="271px" height="50px" viewBox="0 0 271 50" version="1.1" xmlns="http://www.w3.org/2000/svg" xmlns:xlink="http://www.w3.org/1999/xlink">
    <title>FP logo L</title>
    <g id="FP-logo-L" stroke="none" stroke-width="1" fill="none" fill-rule="evenodd">
        <g id="e_UST-GZ_4C_L3" fill-rule="nonzero">
            <g id="编组" transform="translate(0.000000, 0.574713)">
                <path d="M24.6264284,48.6781609 L18.9876668,39.2528736 C18.9876668,39.2528736 18.8150516,39.0229885 18.8150516,38.6781609 L18.8150516,38.4482759 L18.8150516,37.9885057 L18.8150516,21.1494253 L16.6861314,21.1494253 L16.6861314,38.6781609 L16.6861314,39.1954023 C16.8587465,39.3678161 20.4261264,45.4597701 20.4261264,45.4597701 L11.5652152,45.4597701 C11.5652152,45.4597701 15.132595,39.3678161 15.3052102,39.1954023 L15.3052102,38.6781609 L15.3052102,21.1494253 L13.17629,21.1494253 L13.17629,37.9310345 L13.17629,38.3908046 L13.17629,38.6206897 C13.17629,38.9655172 13.0036748,39.1954023 13.0036748,39.1954023 L7.30737478,48.6206897 L24.6264284,48.6206897 L24.6264284,48.6781609 Z" id="路径" fill="#996600"></path>
                <g transform="translate(8.630758, 0.000000)" fill="#996600" id="路径">
                    <path d="M14.2695193,8.90804598 C14.2695193,8.90804598 15.3627486,4.48275862 11.5076768,1.6091954 C11.5076768,1.6091954 10.0116788,0.229885057 7.07722124,0.229885057 C4.48799396,0.229885057 2.99199597,1.6091954 2.99199597,1.6091954 C-0.517845457,4.02298851 0.402768689,8.90804598 0.402768689,8.90804598 L14.2695193,8.90804598 Z"></path>
                    <path d="M0.805537377,10.1149425 L13.8092122,10.1149425 C13.924289,9.88505747 13.9818273,9.59770115 14.0969041,9.36781609 L0.575383841,9.36781609 C0.632922225,9.65517241 0.690460609,9.88505747 0.805537377,10.1149425 Z"></path>
                    <path d="M13.636597,10.5747126 L1.03569091,10.5747126 C1.15076768,10.862069 1.32338283,11.091954 1.49599799,11.3218391 L13.2338283,11.3218391 C13.3489051,11.091954 13.5215203,10.862069 13.636597,10.5747126 Z"></path>
                    <path d="M2.30153536,12.4137931 L12.3132142,12.4137931 C12.4858293,12.2413793 12.6584445,12.0114943 12.8310597,11.7816092 L1.78368991,11.7816092 C1.95630506,12.0114943 2.12892021,12.2413793 2.30153536,12.4137931 Z"></path>
                    <path d="M3.39476466,13.3333333 L11.2775233,13.3333333 C11.5076768,13.2183908 11.680292,13.045977 11.8529071,12.8735632 L2.81938082,12.8735632 C2.99199597,13.045977 3.16461113,13.1609195 3.39476466,13.3333333 Z"></path>
                    <path d="M4.48799396,13.9655172 C5.35106972,14.3678161 6.32922225,14.5977011 7.30737478,14.5977011 C8.34306569,14.5977011 9.26367984,14.3678161 10.1267556,13.9655172 L4.48799396,13.9655172 Z"></path>
                </g>
                <path d="M29.4596527,14.8850575 L18.8150516,14.8850575 C18.8150516,14.8850575 17.8368991,14.8850575 17.0313617,15.4022989 C16.3984395,15.8045977 15.9956708,16.7816092 15.9381324,16.8390805 L15.9381324,16.8390805 C15.9381324,16.7816092 15.4778253,15.8045977 14.8449031,15.4022989 C14.0393657,14.8850575 13.0612132,14.8850575 13.0612132,14.8850575 L2.47415052,14.8850575 L0.345230305,18.2758621 L10.1267556,18.2758621 C10.1267556,18.2758621 10.4144475,18.2758621 10.5870627,18.3333333 C10.8747546,18.3908046 11.3926001,18.5057471 11.9104455,18.908046 C12.6584445,19.4252874 12.8310597,19.7126437 13.0036748,19.8850575 C13.1187516,20 13.3489051,20.2873563 13.3489051,20.2873563 L15.7655172,20.2873563 L16.0532092,20.2873563 L16.0532092,20.2873563 L16.8587465,20.2873563 L18.6999748,20.2873563 C18.6999748,20.2873563 18.9301284,20 19.0452051,19.8850575 C19.2178203,19.7126437 19.4479738,19.4252874 20.1384344,18.908046 C20.6562799,18.5057471 21.1741253,18.3908046 21.4618173,18.3333333 C21.6344324,18.2758621 21.9221243,18.2758621 21.9221243,18.2758621 L31.7036496,18.2758621 L29.4596527,14.8850575 Z" id="路径" fill="#003366"></path>
                <g transform="translate(1.150768, 18.965517)" fill="#003366" id="路径">
                    <g>
                        <path d="M0.230153536,0.344827586 L0.230153536,16.3218391 C0.230153536,16.3218391 0.230153536,16.4942529 0.230153536,16.5517241 C0.230153536,16.7241379 0.230153536,16.8965517 0.230153536,17.0114943 C0.402768689,18.7356322 0.920614145,20 1.95630506,21.6666667 C3.50984143,24.2528736 6.38676063,26.091954 6.38676063,26.091954 L7.71014347,23.9655172 C7.71014347,23.9655172 5.86891518,22.9885057 4.43045558,20.8045977 C4.14276365,20.3448276 3.85507173,19.9425287 3.6249182,19.5402299 C3.45230305,19.137931 3.27968789,18.8505747 3.16461113,18.5057471 C3.10707274,18.2758621 2.99199597,18.045977 2.99199597,17.816092 C2.93445759,17.5287356 2.8769192,17.2988506 2.8769192,17.0114943 C2.8769192,16.8965517 2.8769192,16.4942529 2.8769192,16.4942529 L2.8769192,16.4367816 L2.8769192,0.344827586 L0.230153536,0.344827586 Z"></path>
                        <path d="M4.31537881,0.344827586 L4.31537881,16.4942529 C4.31537881,16.4942529 4.31537881,16.5517241 4.31537881,16.6091954 C4.31537881,16.6666667 4.31537881,16.7816092 4.31537881,16.8965517 C4.31537881,16.954023 4.31537881,17.0114943 4.31537881,17.0689655 C4.37291719,17.2988506 4.43045558,17.5287356 4.54553234,17.8735632 C4.7181475,18.3908046 5.0633778,19.0804598 5.52368487,19.8275862 C6.73199094,21.7816092 8.45814246,22.6436782 8.45814246,22.6436782 L9.7815253,20.5747126 C9.7815253,20.5747126 9.32121822,20.3448276 8.80337277,19.8275862 C8.45814246,19.4827586 7.99783539,19.0229885 7.65260508,18.5057471 C7.30737478,17.9310345 7.07722124,17.4137931 6.96214448,17.0114943 C6.90460609,16.6091954 6.90460609,16.3218391 6.90460609,16.1494253 C6.90460609,15.9770115 6.90460609,15.9195402 6.90460609,15.9195402 L6.90460609,0.344827586 L4.31537881,0.344827586 Z"></path>
                    </g>
                    <g transform="translate(19.563051, 0.000000)">
                        <path d="M9.83906368,0.344827586 L9.83906368,16.3218391 C9.83906368,16.3218391 9.83906368,16.4942529 9.83906368,16.5517241 C9.83906368,16.7241379 9.83906368,16.8965517 9.83906368,17.0114943 C9.66644853,18.7356322 9.14860307,20 8.11291216,21.6666667 C6.55937579,24.2528736 3.68245658,26.091954 3.68245658,26.091954 L2.35907375,23.9655172 C2.35907375,23.9655172 4.20030204,22.9885057 5.63876164,20.8045977 C5.92645356,20.3448276 6.21414548,19.9425287 6.44429902,19.5402299 C6.61691417,19.137931 6.78952932,18.8505747 6.90460609,18.5057471 C6.96214448,18.2758621 7.07722124,18.045977 7.07722124,17.816092 C7.13475963,17.5287356 7.19229801,17.2988506 7.19229801,17.0114943 C7.19229801,16.8965517 7.19229801,16.4942529 7.19229801,16.4942529 L7.19229801,16.4367816 L7.19229801,0.344827586 L9.83906368,0.344827586 Z"></path>
                        <path d="M5.75383841,0.344827586 L5.75383841,16.4942529 C5.75383841,16.4942529 5.75383841,16.5517241 5.75383841,16.6091954 C5.75383841,16.6666667 5.75383841,16.7816092 5.75383841,16.8965517 C5.75383841,16.954023 5.75383841,17.0114943 5.75383841,17.0689655 C5.69630003,17.2988506 5.63876164,17.5287356 5.52368487,17.8735632 C5.35106972,18.3908046 5.00583942,19.0804598 4.54553234,19.8275862 C3.33722628,21.7816092 1.61107475,22.6436782 1.61107475,22.6436782 L0.28769192,20.5747126 C0.28769192,20.5747126 0.747998993,20.3448276 1.26584445,19.8275862 C1.61107475,19.4827586 2.07138183,19.0229885 2.41661213,18.5057471 C2.76184244,17.9310345 2.99199597,17.4137931 3.10707274,17.0114943 C3.22214951,16.6666667 3.22214951,16.3793103 3.22214951,16.2068966 C3.22214951,16.0344828 3.22214951,15.9770115 3.22214951,15.9770115 L3.22214951,0.344827586 L5.75383841,0.344827586 Z"></path>
                    </g>
                </g>
            </g>
            <g id="编组" transform="translate(38.550717, 36.781609)" fill="#003366">
                <polygon id="路径" points="4.66060911 12.0689655 3.22214951 12.0689655 3.22214951 1.89655172 0.517845457 1.89655172 0.517845457 0.574712644 7.36491316 0.574712644 7.36491316 1.89655172 4.66060911 1.89655172"></polygon>
                <polygon id="路径" points="8.63075761 0.632183908 14.7873647 0.632183908 14.7873647 1.95402299 10.0692172 1.95402299 10.0692172 5.17241379 14.6722879 5.17241379 14.6722879 6.49425287 10.0692172 6.49425287 10.0692172 10.8045977 14.7873647 10.8045977 14.7873647 12.0689655 8.63075761 12.0689655"></polygon>
                <path d="M25.0867355,2.81609195 C24.2811981,2.06896552 23.1304304,1.66666667 22.0372011,1.66666667 C19.4479738,1.66666667 17.4916688,3.79310345 17.4916688,6.32183908 C17.4916688,8.85057471 19.4479738,10.9770115 21.9796627,10.9770115 C23.1304304,10.9770115 24.1661213,10.5747126 25.0291971,9.77011494 L25.0291971,11.4942529 C24.1661213,12.0114943 23.0153536,12.2988506 22.0372011,12.2988506 C18.7575132,12.2988506 16.0532092,9.71264368 16.0532092,6.37931034 C16.0532092,2.98850575 18.7575132,0.344827586 22.1522779,0.344827586 C23.1304304,0.344827586 24.1661213,0.574712644 25.0291971,1.09195402 L25.0291971,2.81609195 L25.0867355,2.81609195 Z" id="路径"></path>
                <polygon id="路径" points="33.6599547 5.22988506 33.6599547 0.632183908 35.0984143 0.632183908 35.0984143 12.0689655 33.6599547 12.0689655 33.6599547 6.55172414 28.1938082 6.55172414 28.1938082 12.0689655 26.7553486 12.0689655 26.7553486 0.632183908 28.1938082 0.632183908 28.1938082 5.22988506"></polygon>
                <polygon id="路径" points="37.1697961 0.0574712644 45.7430154 9.08045977 45.7430154 0.632183908 47.181475 0.632183908 47.181475 12.5287356 38.6082557 3.50574713 38.6082557 12.0689655 37.1697961 12.0689655"></polygon>
                <path d="M60.5879184,6.32183908 C60.5879184,9.71264368 57.8836144,12.2988506 54.6039265,12.2988506 C51.2667002,12.2988506 48.6199346,9.71264368 48.6199346,6.32183908 C48.6199346,3.04597701 51.3242386,0.344827586 54.6039265,0.344827586 C57.8836144,0.344827586 60.5879184,3.04597701 60.5879184,6.32183908 Z M59.1494588,6.32183908 C59.1494588,3.79310345 57.2506922,1.66666667 54.6039265,1.66666667 C51.8996225,1.66666667 50.0583942,3.79310345 50.0583942,6.32183908 C50.0583942,8.90804598 52.129776,10.9770115 54.6039265,10.9770115 C57.078077,10.9770115 59.1494588,8.96551724 59.1494588,6.32183908 Z" id="形状"></path>
                <polygon id="路径" points="63.522376 10.7471264 66.9746791 10.7471264 66.9746791 12.0689655 62.1414548 12.0689655 62.1414548 0.632183908 63.5799144 0.632183908 63.5799144 10.7471264"></polygon>
                <path d="M79.2878933,6.32183908 C79.2878933,9.71264368 76.5835892,12.2988506 73.3039013,12.2988506 C69.9666751,12.2988506 67.3199094,9.71264368 67.3199094,6.32183908 C67.3199094,3.04597701 70.0242134,0.344827586 73.3039013,0.344827586 C76.5835892,0.344827586 79.2878933,3.04597701 79.2878933,6.32183908 Z M77.9069721,6.32183908 C77.9069721,3.79310345 76.0082054,1.66666667 73.3614397,1.66666667 C70.6571357,1.66666667 68.8159074,3.79310345 68.8159074,6.32183908 C68.8159074,8.90804598 70.8872892,10.9770115 73.3614397,10.9770115 C75.7780518,10.9770115 77.9069721,8.96551724 77.9069721,6.32183908 Z" id="形状"></path>
                <path d="M91.2558772,6.26436782 L91.2558772,6.72413793 C91.2558772,9.88505747 89.0118802,12.2988506 85.8472691,12.2988506 C82.6251196,12.2988506 80.0358923,9.54022989 80.0358923,6.37931034 C80.0358923,3.10344828 82.6826579,0.402298851 85.9623458,0.402298851 C87.7460357,0.402298851 89.5297256,1.20689655 90.6229549,2.64367816 L89.6448024,3.62068966 C88.839265,2.47126437 87.4583438,1.7816092 86.0198842,1.7816092 C83.4306569,1.7816092 81.4743519,3.85057471 81.4743519,6.43678161 C81.4743519,8.85057471 83.4306569,11.091954 85.9048075,11.091954 C87.6884974,11.091954 89.587264,9.54022989 89.6448024,7.70114943 L86.7103448,7.70114943 L86.7103448,6.37931034 L91.2558772,6.37931034 L91.2558772,6.26436782 Z" id="路径"></path>
                <polygon id="路径" points="91.6586459 0.632183908 93.327259 0.632183908 96.1466398 5.51724138 98.9660206 0.632183908 100.634634 0.632183908 96.8946388 7.06896552 96.8946388 12.0689655 95.4561792 12.0689655 95.4561792 7.06896552"></polygon>
            </g>
            <g id="编组" transform="translate(37.975334, 0.000000)" fill="#003366">
                <polygon id="路径" points="4.25784042 12.4137931 2.81938082 12.4137931 2.81938082 2.29885057 0.115076768 2.29885057 0.115076768 0.977011494 6.96214448 0.977011494 6.96214448 2.29885057 4.25784042 2.29885057"></polygon>
                <polygon id="路径" points="15.0175182 5.63218391 15.0175182 1.03448276 16.4559779 1.03448276 16.4559779 12.4712644 15.0175182 12.4712644 15.0175182 6.95402299 9.55137176 6.95402299 9.55137176 12.4712644 8.11291216 12.4712644 8.11291216 0.977011494 9.55137176 0.977011494 9.55137176 5.57471264 15.0175182 5.57471264"></polygon>
                <polygon id="路径" points="18.6424364 0.977011494 24.7990435 0.977011494 24.7990435 2.29885057 20.080896 2.29885057 20.080896 5.51724138 24.6839668 5.51724138 24.6839668 6.83908046 20.080896 6.83908046 20.080896 11.1494253 24.7990435 11.1494253 24.7990435 12.4712644 18.6424364 12.4712644"></polygon>
                <polygon id="路径" points="38.0328719 5.63218391 38.0328719 1.03448276 39.4713315 1.03448276 39.4713315 12.4712644 38.0328719 12.4712644 38.0328719 6.95402299 32.5667254 6.95402299 32.5667254 12.4712644 31.1282658 12.4712644 31.1282658 0.977011494 32.5667254 0.977011494 32.5667254 5.57471264 38.0328719 5.57471264"></polygon>
                <path d="M52.877775,6.72413793 C52.877775,10.1149425 50.1734709,12.7011494 46.893783,12.7011494 C43.5565568,12.7011494 40.9097911,10.1149425 40.9097911,6.72413793 C40.9097911,3.44827586 43.6140951,0.747126437 46.893783,0.747126437 C50.1159325,0.747126437 52.877775,3.44827586 52.877775,6.72413793 Z M51.4393154,6.72413793 C51.4393154,4.1954023 49.5405487,2.06896552 46.893783,2.06896552 C44.189479,2.06896552 42.3482507,4.1954023 42.3482507,6.72413793 C42.3482507,9.31034483 44.4196325,11.3793103 46.893783,11.3793103 C49.3103952,11.3218391 51.4393154,9.31034483 51.4393154,6.72413793 Z" id="形状"></path>
                <polygon id="路径" points="54.2586962 0.459770115 62.8319154 9.48275862 62.8319154 0.977011494 64.270375 0.977011494 64.270375 12.8735632 55.6971558 3.90804598 55.6971558 12.4137931 54.2586962 12.4137931"></polygon>
                <path d="M76.9288195,6.66666667 L76.9288195,7.12643678 C76.9288195,10.2873563 74.6848226,12.7011494 71.5202114,12.7011494 C68.2980619,12.7011494 65.7088346,9.94252874 65.7088346,6.7816092 C65.7088346,3.50574713 68.3556003,0.804597701 71.6352882,0.804597701 C73.4189781,0.804597701 75.202668,1.6091954 76.2958973,3.04597701 L75.3177448,4.02298851 C74.5122074,2.87356322 73.1312862,2.18390805 71.6928266,2.18390805 C69.1035993,2.18390805 67.1472942,4.25287356 67.1472942,6.83908046 C67.1472942,9.25287356 69.1035993,11.4942529 71.5777498,11.4942529 C73.3614397,11.4942529 75.2602064,9.94252874 75.3177448,8.10344828 L72.3832872,8.10344828 L72.3832872,6.7816092 L76.9288195,6.7816092 L76.9288195,6.66666667 Z" id="路径"></path>
                <polygon id="路径" points="89.2995721 0.977011494 91.1408004 0.977011494 86.0198842 6.09195402 91.2558772 12.4137931 89.2995721 12.4137931 84.9841933 7.06896552 84.4088095 7.64367816 84.4088095 12.4137931 82.9703499 12.4137931 82.9703499 0.977011494 84.4088095 0.977011494 84.4088095 5.91954023"></polygon>
                <path d="M103.454015,6.72413793 C103.454015,10.1149425 100.749711,12.7011494 97.4700227,12.7011494 C94.1327964,12.7011494 91.4860307,10.1149425 91.4860307,6.72413793 C91.4860307,3.44827586 94.1903348,0.747126437 97.4700227,0.747126437 C100.749711,0.747126437 103.454015,3.44827586 103.454015,6.72413793 Z M102.015555,6.72413793 C102.015555,4.1954023 100.116788,2.06896552 97.4700227,2.06896552 C94.7657186,2.06896552 92.9244903,4.1954023 92.9244903,6.72413793 C92.9244903,9.31034483 94.9958721,11.3793103 97.4700227,11.3793103 C99.9441732,11.3218391 102.015555,9.31034483 102.015555,6.72413793 Z" id="形状"></path>
                <polygon id="路径" points="104.834936 0.459770115 113.408155 9.48275862 113.408155 0.977011494 114.846615 0.977011494 114.846615 12.8735632 106.273395 3.90804598 106.273395 12.4137931 104.834936 12.4137931"></polygon>
                <path d="M127.505059,6.66666667 L127.505059,7.12643678 C127.505059,10.2873563 125.261062,12.7011494 122.096451,12.7011494 C118.874302,12.7011494 116.285074,9.94252874 116.285074,6.7816092 C116.285074,3.50574713 118.93184,0.804597701 122.211528,0.804597701 C123.995218,0.804597701 125.778908,1.6091954 126.872137,3.04597701 L125.893984,4.02298851 C125.088447,2.87356322 123.707526,2.18390805 122.269066,2.18390805 C119.679839,2.18390805 117.723534,4.25287356 117.723534,6.83908046 C117.723534,9.25287356 119.679839,11.4942529 122.153989,11.4942529 C123.937679,11.4942529 125.836446,9.94252874 125.893984,8.10344828 L122.959527,8.10344828 L122.959527,6.7816092 L127.505059,6.7816092 L127.505059,6.66666667 Z" id="路径"></path>
            </g>
            <g id="编组" transform="translate(38.550717, 18.390805)" fill="#003366">
                <path d="M1.84122829,0.804597701 L1.84122829,7.52873563 C1.84122829,9.36781609 2.41661213,11.1494253 4.60307073,11.1494253 C6.78952932,11.1494253 7.36491316,9.42528736 7.36491316,7.52873563 L7.36491316,0.804597701 L8.80337277,0.804597701 L8.80337277,8.04597701 C8.80337277,10.5747126 7.2498364,12.4712644 4.60307073,12.4712644 C1.95630506,12.4712644 0.402768689,10.5172414 0.402768689,8.04597701 L0.402768689,0.804597701 L1.84122829,0.804597701 Z" id="路径"></path>
                <polygon id="路径" points="10.9898314 0.287356322 19.5630506 9.25287356 19.5630506 0.804597701 21.0015102 0.804597701 21.0015102 12.7011494 12.428291 3.73563218 12.428291 12.2413793 10.9898314 12.2413793"></polygon>
                <polygon id="路径" points="25.2018122 12.2413793 23.7633526 12.2413793 23.7633526 0.804597701 25.2018122 0.804597701"></polygon>
                <polygon id="路径" points="31.3008809 9.25287356 34.6956456 0.804597701 36.249182 0.804597701 31.3008809 12.8735632 26.2950415 0.804597701 27.8485779 0.804597701"></polygon>
                <polygon id="路径" points="37.3999497 0.804597701 43.5565568 0.804597701 43.5565568 2.12643678 38.8384093 2.12643678 38.8384093 5.34482759 43.44148 5.34482759 43.44148 6.66666667 38.8384093 6.66666667 38.8384093 10.9195402 43.5565568 10.9195402 43.5565568 12.2413793 37.3999497 12.2413793"></polygon>
                <path d="M52.5900831,12.2413793 L50.8639315,12.2413793 L47.4691669,7.4137931 L46.893783,7.4137931 L46.893783,12.2413793 L45.4553234,12.2413793 L45.4553234,0.804597701 L47.181475,0.804597701 C48.2171659,0.804597701 49.3103952,0.804597701 50.2310093,1.32183908 C51.2091618,1.89655172 51.7270073,2.98850575 51.7270073,4.02298851 C51.7270073,5.68965517 50.633778,7.01149425 48.9651649,7.24137931 L52.5900831,12.2413793 Z M46.893783,6.20689655 L47.3540901,6.20689655 C48.7925497,6.20689655 50.4036245,5.91954023 50.4036245,4.13793103 C50.4036245,2.35632184 48.6774729,2.06896552 47.2965517,2.06896552 L46.893783,2.06896552 L46.893783,6.20689655 L46.893783,6.20689655 Z" id="形状"></path>
                <path d="M59.1494588,2.98850575 C58.7466902,2.29885057 58.1713063,1.89655172 57.3082306,1.89655172 C56.3876164,1.89655172 55.4094639,2.52873563 55.4094639,3.50574713 C55.4094639,4.42528736 56.2725396,4.88505747 57.0205386,5.17241379 L57.826076,5.51724138 C59.4371508,6.14942529 60.6454568,7.06896552 60.6454568,8.96551724 C60.6454568,11.0344828 59.0343821,12.5287356 56.9630003,12.5287356 C55.121772,12.5287356 53.6833124,11.1494253 53.3956204,9.31034483 L54.83408,9.02298851 C54.83408,10.2873563 55.8122326,11.2068966 57.078077,11.2068966 C58.2863831,11.2068966 59.2069972,10.1724138 59.2069972,8.96551724 C59.2069972,7.75862069 58.2288447,7.18390805 57.2506922,6.7816092 L56.4451548,6.43678161 C55.121772,5.86206897 53.9710043,5.11494253 53.9710043,3.56321839 C53.9710043,1.72413793 55.6396174,0.632183908 57.3657689,0.632183908 C58.6316134,0.632183908 59.6673043,1.26436782 60.3002265,2.35632184 L59.1494588,2.98850575 Z" id="路径"></path>
                <polygon id="路径" points="63.9826831 12.2413793 62.5442235 12.2413793 62.5442235 0.804597701 63.9826831 0.804597701"></polygon>
                <polygon id="路径" points="69.6789831 12.2413793 68.2405235 12.2413793 68.2405235 2.12643678 65.5362195 2.12643678 65.5362195 0.804597701 72.3832872 0.804597701 72.3832872 2.12643678 69.6789831 2.12643678 69.6789831 12.2413793"></polygon>
                <polygon id="路径" points="72.9011326 0.804597701 74.5697458 0.804597701 77.3891266 5.68965517 80.2085074 0.804597701 81.8771206 0.804597701 78.1371256 7.24137931 78.1371256 12.2413793 76.698666 12.2413793 76.698666 7.24137931"></polygon>
                <path d="M98.9660206,6.55172414 C98.9660206,9.94252874 96.2617166,12.5287356 92.9820287,12.5287356 C89.6448024,12.5287356 86.9980367,9.94252874 86.9980367,6.55172414 C86.9980367,3.27586207 89.7023408,0.574712644 92.9820287,0.574712644 C96.2041782,0.574712644 98.9660206,3.27586207 98.9660206,6.55172414 Z M97.527561,6.55172414 C97.527561,4.02298851 95.6287944,1.89655172 92.9820287,1.89655172 C90.2777246,1.89655172 88.4364964,4.02298851 88.4364964,6.55172414 C88.4364964,9.13793103 90.5078782,11.2068966 92.9820287,11.2068966 C95.3986408,11.1494253 97.527561,9.13793103 97.527561,6.55172414 Z" id="形状"></path>
                <polygon id="路径" points="102.130632 2.12643678 102.130632 5.34482759 106.10078 5.34482759 106.10078 6.66666667 102.130632 6.66666667 102.130632 12.2988506 100.692172 12.2988506 100.692172 0.804597701 106.215857 0.804597701 106.215857 2.12643678 102.130632 2.12643678"></polygon>
                <path d="M118.356456,2.98850575 C117.953687,2.29885057 117.378304,1.89655172 116.515228,1.89655172 C115.594614,1.89655172 114.616461,2.52873563 114.616461,3.50574713 C114.616461,4.42528736 115.479537,4.88505747 116.227536,5.17241379 L117.033073,5.51724138 C118.644148,6.14942529 119.852454,7.06896552 119.852454,8.96551724 C119.852454,11.0344828 118.241379,12.5287356 116.169997,12.5287356 C114.328769,12.5287356 112.89031,11.1494253 112.602618,9.31034483 L114.041077,9.02298851 C114.041077,10.2873563 115.01923,11.2068966 116.285074,11.2068966 C117.49338,11.2068966 118.413994,10.1724138 118.413994,8.96551724 C118.413994,7.75862069 117.435842,7.18390805 116.457689,6.7816092 L115.652152,6.43678161 C114.328769,5.86206897 113.178002,5.11494253 113.178002,3.56321839 C113.178002,1.72413793 114.846615,0.632183908 116.572766,0.632183908 C117.838611,0.632183908 118.874302,1.26436782 119.507224,2.35632184 L118.356456,2.98850575 Z" id="路径"></path>
                <path d="M130.209363,2.98850575 C129.403826,2.24137931 128.253058,1.83908046 127.159829,1.83908046 C124.570602,1.83908046 122.614297,3.96551724 122.614297,6.49425287 C122.614297,9.02298851 124.570602,11.1494253 127.10229,11.1494253 C128.253058,11.1494253 129.288749,10.7471264 130.151825,9.94252874 L130.151825,11.6091954 C129.288749,12.1264368 128.137981,12.4137931 127.159829,12.4137931 C123.880141,12.4137931 121.175837,9.82758621 121.175837,6.49425287 C121.175837,3.10344828 123.880141,0.459770115 127.274906,0.459770115 C128.253058,0.459770115 129.288749,0.689655172 130.151825,1.20689655 L130.151825,2.98850575 L130.209363,2.98850575 Z" id="路径"></path>
                <polygon id="路径" points="134.006897 12.2413793 132.568437 12.2413793 132.568437 0.804597701 134.006897 0.804597701"></polygon>
                <polygon id="路径" points="136.826277 0.804597701 142.982884 0.804597701 142.982884 2.12643678 138.264737 2.12643678 138.264737 5.34482759 142.867808 5.34482759 142.867808 6.66666667 138.264737 6.66666667 138.264737 10.9195402 142.982884 10.9195402 142.982884 12.2413793 136.826277 12.2413793"></polygon>
                <polygon id="路径" points="145.28442 0.287356322 153.857639 9.31034483 153.857639 0.804597701 155.296099 0.804597701 155.296099 12.7011494 146.722879 3.73563218 146.722879 12.2413793 145.28442 12.2413793"></polygon>
                <path d="M165.9407,2.98850575 C165.135162,2.24137931 163.984395,1.83908046 162.891165,1.83908046 C160.301938,1.83908046 158.345633,3.96551724 158.345633,6.49425287 C158.345633,9.02298851 160.301938,11.1494253 162.833627,11.1494253 C163.984395,11.1494253 165.020086,10.7471264 165.883161,9.94252874 L165.883161,11.6091954 C165.020086,12.1264368 163.869318,12.4137931 162.891165,12.4137931 C159.611477,12.4137931 156.907173,9.82758621 156.907173,6.49425287 C156.907173,3.10344828 159.611477,0.459770115 163.006242,0.459770115 C163.984395,0.459770115 165.020086,0.689655172 165.883161,1.20689655 L165.883161,2.98850575 L165.9407,2.98850575 Z" id="路径"></path>
                <polygon id="路径" points="168.012082 0.804597701 174.168689 0.804597701 174.168689 2.12643678 169.450541 2.12643678 169.450541 5.34482759 174.053612 5.34482759 174.053612 6.66666667 169.450541 6.66666667 169.450541 10.9195402 174.168689 10.9195402 174.168689 12.2413793 168.012082 12.2413793"></polygon>
            </g>
            <path d="M222.155701,27.816092 L220.832318,30.6896552 L219.278782,30.6896552 L224.744928,18.7931034 L230.211075,30.6896552 L228.657538,30.6896552 L227.334156,27.816092 L222.155701,27.816092 L222.155701,27.816092 Z M224.802467,21.8965517 L222.788623,26.5517241 L226.873848,26.5517241 L224.802467,21.8965517 Z" id="形状" fill="#003366"></path>
            <polygon id="路径" fill="#003366" points="231.591996 18.6781609 240.165215 27.7011494 240.165215 19.2528736 241.603675 19.2528736 241.603675 31.1494253 233.030456 22.1264368 233.030456 30.6321839 231.591996 30.6321839"></polygon>
            <path d="M243.790133,19.2528736 L246.149207,19.2528736 C249.659049,19.2528736 252.593506,21.091954 252.593506,24.8850575 C252.593506,28.7931034 249.716587,30.6896552 246.149207,30.6896552 L243.847672,30.6896552 L243.847672,19.2528736 L243.790133,19.2528736 Z M245.171055,29.3678161 L245.6889,29.3678161 C248.623358,29.3678161 251.155047,28.2758621 251.155047,24.9425287 C251.155047,21.6091954 248.623358,20.5172414 245.6889,20.5172414 L245.171055,20.5172414 L245.171055,29.3678161 Z" id="形状" fill="#003366"></path>
            <g id="编组" transform="translate(143.270576, 36.206897)" fill="#003366">
                <g transform="translate(5.753838, 0.574713)">
                    <path d="M11.2775233,6.32183908 L11.2775233,6.7816092 C11.2775233,9.94252874 9.0335263,12.3563218 5.86891518,12.3563218 C2.64676567,12.3563218 0.0575383841,9.59770115 0.0575383841,6.43678161 C0.0575383841,3.16091954 2.70430405,0.459770115 5.98399195,0.459770115 C7.76768185,0.459770115 9.55137176,1.26436782 10.6446011,2.70114943 L9.66644853,3.67816092 C8.86091115,2.52873563 7.47998993,1.7816092 6.04153033,1.7816092 C3.45230305,1.7816092 1.4384596,3.85057471 1.4384596,6.43678161 C1.4384596,8.85057471 3.39476466,11.091954 5.86891518,11.091954 C7.65260508,11.091954 9.55137176,9.54022989 9.60891014,7.70114943 L6.61691417,7.70114943 L6.61691417,6.32183908 L11.2775233,6.32183908 Z" id="路径"></path>
                    <path d="M14.0969041,0.632183908 L14.0969041,7.4137931 C14.0969041,9.31034483 14.6722879,11.0344828 16.8587465,11.0344828 C19.0452051,11.0344828 19.620589,9.31034483 19.620589,7.4137931 L19.620589,0.632183908 L21.0590486,0.632183908 L21.0590486,7.87356322 C21.0590486,10.4022989 19.5055122,12.2988506 16.8587465,12.2988506 C14.2119809,12.2988506 12.6584445,10.3448276 12.6584445,7.87356322 L12.6584445,0.632183908 L14.0969041,0.632183908 Z" id="路径"></path>
                    <path d="M24.7990435,9.1954023 L23.4756607,12.0689655 L21.9221243,12.0689655 L27.3882708,0.114942529 L32.8544173,12.0689655 L31.3008809,12.0689655 L29.9774981,9.1954023 L24.7990435,9.1954023 Z M27.4458092,3.27586207 L25.4319658,7.93103448 L29.517191,7.93103448 L27.4458092,3.27586207 Z" id="形状"></path>
                    <polygon id="路径" points="33.8901082 0.0574712644 42.5208658 9.08045977 42.5208658 0.632183908 43.9593254 0.632183908 43.9593254 12.5862069 35.3285678 3.56321839 35.3285678 12.0689655 33.8901082 12.0689655"></polygon>
                    <path d="M56.5602316,6.32183908 L56.5602316,6.7816092 C56.5602316,9.94252874 54.3162346,12.3563218 51.1516235,12.3563218 C47.9294739,12.3563218 45.3402467,9.59770115 45.3402467,6.43678161 C45.3402467,3.16091954 47.9870123,0.459770115 51.2667002,0.459770115 C53.0503901,0.459770115 54.83408,1.26436782 55.9273093,2.70114943 L54.9491568,3.67816092 C54.1436194,2.52873563 52.7626982,1.7816092 51.3242386,1.7816092 C48.7350113,1.7816092 46.7211679,3.85057471 46.7211679,6.43678161 C46.7211679,8.85057471 48.6774729,11.091954 51.1516235,11.091954 C52.9353134,11.091954 54.83408,9.54022989 54.8916184,7.70114943 L51.8996225,7.70114943 L51.8996225,6.32183908 L56.5602316,6.32183908 Z" id="路径"></path>
                    <polygon id="路径" points="65.3060659 10.7471264 65.3060659 12.0689655 57.1356154 12.0689655 62.9469922 1.89655172 57.9411528 1.89655172 57.9411528 0.574712644 65.2485276 0.574712644 59.4371508 10.7471264"></polygon>
                    <polygon id="路径" points="73.4189781 5.22988506 73.4189781 0.632183908 74.8574377 0.632183908 74.8574377 12.0689655 73.4189781 12.0689655 73.4189781 6.55172414 67.9528316 6.55172414 67.9528316 12.0689655 66.514372 12.0689655 66.514372 0.632183908 67.9528316 0.632183908 67.9528316 5.22988506"></polygon>
                    <path d="M88.2638812,6.32183908 C88.2638812,9.71264368 85.5595771,12.2988506 82.2798893,12.2988506 C78.942663,12.2988506 76.2958973,9.71264368 76.2958973,6.32183908 C76.2958973,3.04597701 79.0002014,0.344827586 82.2798893,0.344827586 C85.5595771,0.344827586 88.2638812,3.04597701 88.2638812,6.32183908 Z M86.8254216,6.32183908 C86.8254216,3.79310345 84.9266549,1.66666667 82.2223509,1.66666667 C79.5180468,1.66666667 77.6192801,3.79310345 77.6192801,6.32183908 C77.6192801,8.90804598 79.7482004,10.9770115 82.2223509,10.9770115 C84.7540398,10.9770115 86.8254216,8.96551724 86.8254216,6.32183908 Z" id="形状"></path>
                    <path d="M91.0257236,0.632183908 L91.0257236,7.4137931 C91.0257236,9.31034483 91.6011075,11.0344828 93.7875661,11.0344828 C95.9740247,11.0344828 96.5494085,9.31034483 96.5494085,7.4137931 L96.5494085,0.632183908 L97.9878681,0.632183908 L97.9878681,7.87356322 C97.9878681,10.4022989 96.4343317,12.2988506 93.7875661,12.2988506 C91.1408004,12.2988506 89.587264,10.3448276 89.587264,7.87356322 L89.587264,0.632183908 L91.0257236,0.632183908 Z" id="路径"></path>
                </g>
                <path d="M3.9701485,0.114942529 C3.33722628,1.26436782 2.93445759,2.24137931 2.64676567,2.98850575 C2.24399698,4.25287356 2.01384344,5.51724138 2.01384344,6.89655172 C2.01384344,9.08045977 2.64676567,11.3218391 3.9701485,13.6206897 L2.93445759,13.6206897 C2.24399698,12.6436782 1.66861314,11.6091954 1.15076768,10.4022989 C0.690460609,9.1954023 0.460307073,7.98850575 0.460307073,6.83908046 C0.460307073,5.22988506 0.863075761,3.67816092 1.66861314,2.06896552 C2.12892021,1.26436782 2.5316889,0.574712644 2.8769192,0.0574712644 L3.9701485,0.0574712644 L3.9701485,0.114942529 Z" id="路径"></path>
                <path d="M109.840775,6.89655172 C109.840775,8.50574713 109.438007,10.0574713 108.632469,11.6666667 C108.2297,12.4137931 107.826932,13.1034483 107.424163,13.6781609 L106.388472,13.6781609 C107.021394,12.5287356 107.424163,11.5517241 107.711855,10.8045977 C108.114624,9.54022989 108.344777,8.27586207 108.344777,6.89655172 C108.344777,4.71264368 107.711855,2.47126437 106.388472,0.172413793 L107.424163,0.172413793 C108.114624,1.09195402 108.690008,2.18390805 109.150315,3.3908046 C109.610622,4.59770115 109.840775,5.8045977 109.840775,6.89655172 Z" id="路径"></path>
            </g>
        </g>
    </g>
</svg>